<svg width="2732" height="2048" viewBox="0 0 2732 2048" fill="none" xmlns="http://www.w3.org/2000/svg">
<path d="M1300.34 664.012C1382.91 664.012 1449.84 597.076 1449.84 514.506C1449.84 431.936 1382.91 365 1300.34 365C1217.77 365 1150.83 431.936 1150.83 514.506C1150.83 597.076 1217.77 664.012 1300.34 664.012Z" fill="#CFA8A8"/>
<path fill-rule="evenodd" clip-rule="evenodd" d="M1289.3 365.403C1296.85 395.875 1307.77 472.719 1250.96 540.617C1244.94 530.867 1234.05 524.346 1221.62 524.346C1202.67 524.346 1187.29 539.487 1187.29 558.133C1187.29 576.781 1202.67 591.922 1221.62 591.922C1224.89 591.922 1228.06 591.467 1231.07 590.621C1231.49 602.396 1228.45 618.859 1214.01 636.544C1175.8 609.456 1150.84 564.873 1150.84 514.506C1150.84 435.704 1211.94 371.061 1289.3 365.403Z" fill="black"/>
<path fill-rule="evenodd" clip-rule="evenodd" d="M1177.47 590.154C1173.22 592.647 1162.51 592.272 1157.64 593.249C1141.68 596.45 1125.8 600.163 1109.99 604.071C1061.1 616.153 1012.9 630.692 967.285 652.289C934.1 668.002 899.354 687.893 883.653 722.713C860.83 773.33 901.393 818.759 954.128 814.005C1004.99 809.42 1044.9 772.572 1078.79 737.921C1118.44 697.378 1163.71 653.678 1194.11 605.292" fill="black"/>
<path fill-rule="evenodd" clip-rule="evenodd" d="M1002.97 926.196C977.663 953.156 755.057 1196.53 587.797 1384.28C531.681 1447.79 526.597 1541.54 575.518 1610.75C575.511 1610.77 575.514 1610.77 575.514 1610.77C618.482 1671.56 696.252 1696.93 766.802 1673.19C843.246 1647.42 947.647 1587.94 1069.14 1454.67C1130.86 1386.97 1179.92 1325.16 1220.41 1287.32C1220.41 1287.32 1398.02 1344.45 1489.38 1246.52C1489.38 1246.52 1712.39 1531.48 1928.23 1645.07C2013.59 1689.45 2118.76 1659.66 2168.15 1577.1C2191.15 1538.98 2200.8 1493.09 2174.93 1443.26C2061.63 1225 1883.73 1059.86 1611.82 798.425C1559.04 747.662 1466.75 675.158 1288 716.534C1220.65 732.123 1138.56 781.726 1002.97 926.196Z" fill="#CFA8A8"/>
<path fill-rule="evenodd" clip-rule="evenodd" d="M1394.27 1105.6C1394.27 1105.6 1400.13 1104.09 1407.03 1104.71C1412.89 1105.24 1419.82 1107.31 1423.39 1114.68C1428.17 1124.6 1420.94 1132.78 1409.92 1141.14C1387.57 1158.11 1348.19 1172.94 1313.33 1187.14C1308.63 1189.04 1306.39 1194.38 1308.29 1199.06C1310.19 1203.74 1315.54 1205.99 1320.21 1204.09C1356.66 1189.26 1397.63 1173.45 1420.99 1155.72C1440.48 1140.94 1448.33 1124.27 1439.87 1106.73C1432.96 1092.42 1420.05 1087.51 1408.68 1086.48C1398.36 1085.55 1389.6 1087.91 1389.6 1087.91C1384.71 1089.2 1381.8 1094.21 1383.08 1099.09C1384.39 1103.97 1389.4 1106.89 1394.27 1105.6Z" fill="#B58282"/>
<path fill-rule="evenodd" clip-rule="evenodd" d="M1465.15 1068.2C1465.15 1068.2 1476.04 1057.64 1490.86 1049.22C1500.13 1043.96 1510.97 1039.39 1521.61 1039.44C1525.96 1039.45 1530.05 1041.34 1532.87 1044.61C1535.68 1047.89 1536.92 1052.22 1536.25 1056.49C1534.47 1066.76 1529.57 1080.71 1516.94 1094.02C1499.58 1112.34 1455.63 1167.63 1315.66 1185.36C1310.65 1185.99 1307.1 1190.57 1307.74 1195.58C1308.38 1200.59 1312.96 1204.15 1317.97 1203.51C1465.7 1184.8 1511.89 1125.95 1530.24 1106.62C1546.02 1089.99 1552.04 1072.52 1554.33 1059.45C1555.81 1049.73 1553.05 1040.03 1546.78 1032.7C1540.48 1025.38 1531.33 1021.15 1521.68 1021.14C1507.95 1021.07 1493.79 1026.51 1481.82 1033.3C1464.83 1042.96 1452.38 1055.08 1452.38 1055.08C1448.77 1058.6 1448.67 1064.4 1452.2 1068.02C1455.72 1071.64 1461.51 1071.72 1465.15 1068.2Z" fill="#B58282"/>
<path fill-rule="evenodd" clip-rule="evenodd" d="M1488.94 1128.17C1488.94 1128.17 1465.49 1188.03 1442.34 1211.16C1438.77 1214.73 1438.77 1220.53 1442.34 1224.1C1445.91 1227.68 1451.72 1227.68 1455.29 1224.1C1480.22 1199.17 1505.96 1134.92 1505.96 1134.92C1507.82 1130.22 1505.53 1124.9 1500.81 1123.04C1496.12 1121.18 1490.79 1123.48 1488.94 1128.17Z" fill="#B58282"/>
<path fill-rule="evenodd" clip-rule="evenodd" d="M1418.45 1167.66V1189.2C1418.45 1194.25 1422.55 1198.35 1427.6 1198.35C1432.64 1198.35 1436.75 1194.25 1436.75 1189.2V1167.66C1436.75 1162.61 1432.64 1158.51 1427.6 1158.51C1422.55 1158.51 1418.45 1162.61 1418.45 1167.66Z" fill="#B58282"/>
<path fill-rule="evenodd" clip-rule="evenodd" d="M1483.91 821.83C1483.91 821.83 1469.27 827.897 1462.38 844.587C1458.15 854.832 1456.59 869.391 1464.6 889.392C1473.84 912.437 1497.61 980.651 1465.31 1033.16C1462.65 1037.46 1464 1043.1 1468.28 1045.75C1472.61 1048.4 1478.23 1047.05 1480.89 1042.75C1516.9 984.255 1491.87 908.259 1481.57 882.581C1476.04 868.719 1476.36 858.673 1479.29 851.574C1483.15 842.251 1491.09 838.659 1491.09 838.659C1495.74 836.673 1497.91 831.29 1495.92 826.645C1493.93 822.003 1488.55 819.844 1483.91 821.83Z" fill="#B58282"/>
<path fill-rule="evenodd" clip-rule="evenodd" d="M1134.53 1380.71C1114.42 1403.84 1092.71 1428.82 1069.14 1454.67C947.647 1587.94 843.246 1647.42 766.802 1673.19C696.252 1696.93 618.482 1671.56 575.514 1610.77C575.514 1610.77 575.511 1610.77 575.518 1610.75C526.597 1541.54 531.681 1447.79 587.797 1384.28C755.057 1196.53 977.663 953.156 1002.97 926.196C1138.56 781.726 1220.65 732.123 1288 716.534C1466.75 675.158 1559.04 747.662 1611.82 798.425C1883.73 1059.86 2061.63 1225 2174.93 1443.26C2200.8 1493.09 2191.15 1538.98 2168.15 1577.1C2128.25 1643.79 2051.96 1676.04 1979.11 1662.59L1917.22 1639.14C1842.69 1597.96 1767.74 1537.31 1701.82 1475.9C1664.3 1436.92 1638.59 1407.22 1638.59 1407.22L1747.92 1137.22L1571.83 1012.36C1564.42 961.276 1561.49 928.628 1545.68 894.777C1541.38 885.516 1536.09 876.166 1529.48 866.323C1498.76 820.5 1479.4 847.776 1479.4 847.776C1465.12 830.153 1451.88 822.035 1443.05 818.309C1438.38 816.453 1433.14 816.78 1428.75 819.201C1424.38 821.621 1421.31 825.881 1420.4 830.807C1418.27 842.919 1425.68 856.575 1429.69 862.844C1430.92 864.743 1432.34 866.52 1433.92 868.149C1520.7 957.86 1472.72 1058.56 1472.72 1058.56C1429.85 1111.33 1353.29 1110.08 1353.29 1110.08C1297.31 1114.59 1262.1 1097.33 1242.13 1081.59C1212.44 1058.25 1173.17 1051.02 1137.11 1062.23C1049.1 1090.28 954.128 1173.84 954.128 1173.84L1134.53 1380.71Z" fill="url(#paint0_linear_411_317)"/>
<path fill-rule="evenodd" clip-rule="evenodd" d="M1220.66 1287.4L1310.37 1187.06C1310.37 1187.06 1418.47 1236.42 1452.72 1197.8L1496.17 1255.03C1491.71 1249.52 1489.38 1246.52 1489.38 1246.52C1400.03 1342.31 1228.15 1289.75 1220.66 1287.4Z" fill="#B58282"/>
<path fill-rule="evenodd" clip-rule="evenodd" d="M974.254 1157.22C961.584 1167.28 954.128 1173.84 954.128 1173.84L968.889 1190.76L700.624 1413.15C695.762 1417.18 688.547 1416.49 684.515 1411.64C680.487 1406.77 681.162 1399.56 686.023 1395.53L971.436 1158.93C972.31 1158.21 973.261 1157.64 974.254 1157.22ZM1734.75 1127.88C1737.15 1128.03 1739.55 1128.94 1741.52 1130.65L2002.77 1357.03C2007.53 1361.17 2008.05 1368.4 2003.91 1373.17C1999.77 1377.94 1992.54 1378.46 1987.78 1374.32L1739.16 1158.88L1747.92 1137.22L1734.75 1127.88ZM1000.28 1137.39C1001.62 1115.36 1005.44 1072.27 1015.81 1034.56C1016.92 1031.08 1020.2 1028.75 1023.85 1028.84C1027.5 1028.93 1030.66 1031.41 1031.6 1034.94C1037.22 1055.81 1044.93 1084.53 1050.13 1103.89C1031.72 1115.14 1014.71 1126.85 1000.28 1137.39ZM1630.83 1054.21L1643.1 995.827C1643.55 993.642 1645.31 991.965 1647.51 991.603C1649.71 991.242 1651.9 992.269 1653.02 994.191C1659.96 1009.5 1670.39 1039 1675.45 1085.84L1630.83 1054.21Z" fill="#521313"/>
<path d="M1471.14 972.347C1471.14 1044.33 1412.79 1102.68 1340.81 1102.68C1268.83 1102.68 1210.48 1044.33 1210.48 972.347C1210.48 900.369 1268.83 842.019 1340.81 842.019C1412.79 842.019 1471.14 900.369 1471.14 972.347Z" fill="#FDA425"/>
<path d="M1339.86 860.817C1310.53 860.817 1282.41 872.467 1261.67 893.205C1240.93 913.942 1229.28 942.069 1229.28 971.396C1229.28 1000.72 1240.93 1028.85 1261.67 1049.59C1282.41 1070.32 1310.53 1081.97 1339.86 1081.97C1369.19 1081.97 1397.31 1070.32 1418.05 1049.59C1438.79 1028.85 1450.44 1000.72 1450.44 971.396C1450.44 942.069 1438.79 913.942 1418.05 893.205C1397.31 872.467 1369.19 860.817 1339.86 860.817ZM1201.64 971.396C1201.64 895.055 1263.52 833.172 1339.86 833.172C1416.2 833.172 1478.08 895.055 1478.08 971.396C1478.08 1047.74 1416.2 1109.62 1339.86 1109.62C1263.52 1109.62 1201.64 1047.74 1201.64 971.396Z" fill="#FFCD80"/>
<path d="M1339.86 999.041C1336.19 999.041 1332.68 997.584 1330.09 994.992C1327.49 992.4 1326.04 988.884 1326.04 985.218V902.284C1326.04 898.618 1327.49 895.102 1330.09 892.51C1332.68 889.918 1336.19 888.462 1339.86 888.462C1343.52 888.462 1347.04 889.918 1349.63 892.51C1352.23 895.102 1353.68 898.618 1353.68 902.284V985.218C1353.68 988.884 1352.23 992.4 1349.63 994.992C1347.04 997.584 1343.52 999.041 1339.86 999.041ZM1319.13 1033.6C1319.13 1028.1 1321.31 1022.82 1325.2 1018.94C1329.09 1015.05 1334.36 1012.86 1339.86 1012.86C1345.36 1012.86 1350.63 1015.05 1354.52 1018.94C1358.41 1022.82 1360.59 1028.1 1360.59 1033.6C1360.59 1039.1 1358.41 1044.37 1354.52 1048.26C1350.63 1052.15 1345.36 1054.33 1339.86 1054.33C1334.36 1054.33 1329.09 1052.15 1325.2 1048.26C1321.31 1044.37 1319.13 1039.1 1319.13 1033.6Z" fill="#FFCD80"/>
<defs>
<linearGradient id="paint0_linear_411_317" x1="1366.18" y1="1193.14" x2="1426.6" y2="2354.08" gradientUnits="userSpaceOnUse">
<stop stop-color="#B58282"/>
<stop offset="0.45" stop-color="#C6A7A7"/>
<stop offset="1" stop-color="#FFF0E6"/>
</linearGradient>
</defs>
</svg>
