<svg width="24" height="24" viewBox="0 0 24 24" fill="none" xmlns="http://www.w3.org/2000/svg">
<path d="M12.707 2.29303L21.707 11.293C22.337 11.923 21.891 13 21 13H20V19C20 19.7957 19.6839 20.5587 19.1213 21.1214C18.5587 21.684 17.7956 22 17 22H16V15C16 14.2348 15.7077 13.4985 15.1827 12.9418C14.6577 12.385 13.9399 12.0499 13.176 12.005L13 12H11C10.2043 12 9.44127 12.3161 8.87866 12.8787C8.31605 13.4413 7.99998 14.2044 7.99998 15V22H6.99998C6.20433 22 5.44127 21.684 4.87866 21.1214C4.31605 20.5587 3.99998 19.7957 3.99998 19V13H2.99998C2.10998 13 1.66298 11.923 2.29298 11.293L11.293 2.29303C11.4805 2.10556 11.7348 2.00024 12 2.00024C12.2651 2.00024 12.5195 2.10556 12.707 2.29303ZM13 14C13.2652 14 13.5195 14.1054 13.7071 14.2929C13.8946 14.4805 14 14.7348 14 15V22H9.99998V15C10 14.7551 10.0899 14.5187 10.2527 14.3357C10.4155 14.1526 10.6397 14.0357 10.883 14.007L11 14H13Z" fill="#FFFFFF"/>
</svg>
